<svg id="Layer_1" data-name="Layer 1" xmlns="http://www.w3.org/2000/svg" width="196" height="226" viewBox="0 0 196 226"><polygon points="98 0.4 192.9 55.2 192.9 164.8 98 219.6 3.1 164.8 3.1 55.2 98 0.4"/><path d="M44.4,154.5l-4.2-6a2,2,0,0,1,.2-2.1l14.9-17.7H48a1.7,1.7,0,0,1-1.8-1.8V114a1.7,1.7,0,0,1,1.8-1.8H58.4a49.4,49.4,0,0,1-2-13.7,42.6,42.6,0,0,1,85.2,0,45.9,45.9,0,0,1-2,13.7H150a1.7,1.7,0,0,1,1.8,1.8v12.9a1.7,1.7,0,0,1-1.8,1.8h-9.2l14.8,17.7a1.8,1.8,0,0,1,0,2.1l-4.1,6a2,2,0,0,1-2.4.5l-8.6-4.5H55.3L46.7,155A1.9,1.9,0,0,1,44.4,154.5Zm27.3-25.8H59.8L44,147.4l2.5,3.6,30.4-16ZM49.8,115.8v9.3h98.4v-9.3Zm12.4-3.6h73.6A45.2,45.2,0,0,0,138,98.5a39,39,0,0,0-78,0C60,103.2,60.4,108,62.2,112.2Zm17.3,25.7-17.1,9H86.8Zm-3.1-9.2,15.1,18.2h13l15.1-18.2Zm40.1,9.2-7.3,9h24.4Zm19.7-9.2H124.3l-5.4,6.3,30.6,16,2.5-3.4Z" fill="#fff"/></svg>