<svg id="Layer_1" data-name="Layer 1" xmlns="http://www.w3.org/2000/svg" width="196" height="226" viewBox="0 0 196 226"><polygon points="98 3.4 192.9 58.2 192.9 167.8 98 222.6 3.1 167.8 3.1 58.2 98 3.4"/><path d="M46,153.5a1.7,1.7,0,0,1-1.8-1.8V129.9H20.4a1.8,1.8,0,1,1,0-3.6H33.9V114.6a1.7,1.7,0,0,1,1.8-1.8h7A57.2,57.2,0,0,1,97.8,69.1c.2-.2.4-.2.7,0a57,57,0,0,1,54.8,43.7h7a1.7,1.7,0,0,1,1.8,1.8v11.7h13.5a1.8,1.8,0,1,1,0,3.6H151.8v21.8a1.7,1.7,0,0,1-1.8,1.8Zm-8.5-37.1v9.9h121v-9.9ZM94.4,72.9c-23,1.4-42.3,18.1-47.9,39.9H65.8Zm-46.6,57v20H96.2v-20ZM96.2,76.5,70.3,112.8H96.2Zm3.6-3.8v40.1h49.7A53.6,53.6,0,0,0,99.8,72.7Zm0,57.2v20h8.1v-20Zm11.7,0v20h36.7v-20Z" fill="#fff"/></svg>